<?xml version="1.0" standalone="no"?>
<!DOCTYPE svg PUBLIC "-//W3C//DTD SVG 20010904//EN"
 "http://www.w3.org/TR/2001/REC-SVG-20010904/DTD/svg10.dtd">
<svg version="1.0" xmlns="http://www.w3.org/2000/svg"
 width="300.000000pt" height="300.000000pt" viewBox="0 0 300.000000 300.000000"
 preserveAspectRatio="xMidYMid meet">

<g transform="translate(0.000000,300.000000) scale(0.100000,-0.100000)"
fill="#000000" stroke="none">
<path d="M1340 2983 c-84 -8 -220 -37 -299 -63 -489 -160 -850 -539 -985
-1035 -42 -154 -49 -228 -44 -442 5 -180 8 -209 36 -313 71 -267 201 -490 407
-695 70 -70 156 -144 206 -177 314 -210 717 -295 1083 -229 192 34 415 111
439 152 8 12 -35 74 -195 285 -113 148 -302 413 -420 589 -318 475 -430 637
-435 632 -2 -3 -7 -200 -10 -439 -6 -490 1 -458 -89 -458 -66 0 -104 16 -104
44 -1 12 -1 284 0 606 1 674 -7 620 97 620 35 0 73 -4 83 -10 10 -5 48 -58 85
-117 37 -59 253 -385 479 -725 226 -340 461 -693 521 -785 61 -92 115 -169
121 -171 17 -4 182 127 250 200 210 225 342 480 400 773 27 135 25 404 -5 548
-42 208 -93 339 -196 507 -79 129 -137 201 -248 306 -271 259 -645 407 -1015
402 -70 0 -143 -3 -162 -5z m698 -896 c7 -9 11 -160 12 -462 2 -621 2 -625
-10 -625 -6 0 -51 62 -101 137 l-89 138 2 396 c2 318 6 399 17 412 17 21 152
24 169 4z"/>
</g>
</svg>
